<svg id="svg" xmlns="http://www.w3.org/2000/svg" xmlns:xlink="http://www.w3.org/1999/xlink" width="400" height="87.5" viewBox="0, 0, 400,87.5"><g id="svgg"><path id="path0" d="M167.250 42.625 L 167.250 66.500 174.240 66.500 L 181.231 66.500 181.303 64.374 L 181.375 62.247 182.625 63.141 C 190.703 68.916,205.156 68.093,212.630 61.431 C 218.658 56.059,219.956 46.629,215.605 39.827 C 209.550 30.361,192.232 27.643,182.938 34.699 L 181.250 35.980 181.250 27.365 L 181.250 18.750 174.250 18.750 L 167.250 18.750 167.250 42.625 M262.060 19.321 C 257.957 20.872,257.557 26.098,261.388 28.107 C 262.794 28.845,266.206 28.845,267.612 28.107 C 273.568 24.983,268.462 16.902,262.060 19.321 M136.750 26.875 L 136.750 31.250 133.875 31.250 L 131.000 31.250 131.000 35.625 L 131.000 40.000 133.862 40.000 L 136.723 40.000 136.801 49.688 C 136.889 60.671,136.938 60.973,139.021 63.340 C 142.307 67.073,152.608 68.141,160.257 65.543 L 161.625 65.078 161.694 60.885 C 161.758 56.953,161.735 56.703,161.319 56.874 C 157.633 58.387,152.730 58.314,151.393 56.726 L 150.750 55.962 150.750 47.981 L 150.750 40.000 156.375 40.000 L 162.000 40.000 162.000 35.625 L 162.000 31.250 156.375 31.250 L 150.750 31.250 150.750 26.875 L 150.750 22.500 143.750 22.500 L 136.750 22.500 136.750 26.875 M51.250 31.129 C 48.205 31.751,45.361 33.064,43.139 34.874 L 41.750 36.006 41.750 33.628 L 41.750 31.250 34.750 31.250 L 27.750 31.250 27.750 48.875 L 27.750 66.500 34.740 66.500 L 41.730 66.500 41.803 55.563 C 41.884 43.221,41.842 43.496,43.930 41.765 C 47.046 39.182,54.074 39.459,56.609 42.265 C 58.177 44.001,58.250 44.617,58.250 56.170 L 58.250 66.500 65.263 66.500 L 72.275 66.500 72.194 53.813 C 72.102 39.352,72.094 39.292,69.901 36.312 C 66.702 31.967,58.418 29.664,51.250 31.129 M97.375 31.129 C 84.726 33.178,77.141 39.876,77.141 49.000 C 77.141 60.408,90.167 68.426,106.366 66.991 C 134.293 64.516,137.811 37.220,110.944 31.467 C 107.805 30.795,100.553 30.614,97.375 31.129 M247.160 31.138 C 243.752 31.815,240.545 33.764,238.603 36.337 L 237.500 37.800 237.500 34.525 L 237.500 31.250 230.500 31.250 L 223.500 31.250 223.500 48.875 L 223.500 66.500 230.500 66.500 L 237.500 66.500 237.500 58.928 C 237.500 52.931,237.580 51.049,237.883 49.884 C 239.227 44.723,243.476 41.828,250.420 41.340 L 252.750 41.176 252.750 35.963 L 252.750 30.750 250.813 30.773 C 249.747 30.786,248.103 30.950,247.160 31.138 M351.750 31.129 C 348.705 31.751,345.861 33.064,343.639 34.874 L 342.250 36.006 342.250 33.628 L 342.250 31.250 335.250 31.250 L 328.250 31.250 328.250 48.875 L 328.250 66.500 335.240 66.500 L 342.230 66.500 342.303 55.563 C 342.384 43.221,342.342 43.496,344.430 41.765 C 347.546 39.182,354.574 39.459,357.109 42.265 C 358.677 44.001,358.750 44.617,358.750 56.170 L 358.750 66.500 365.763 66.500 L 372.775 66.500 372.694 53.813 C 372.602 39.352,372.594 39.292,370.401 36.312 C 367.202 31.967,358.918 29.664,351.750 31.129 M292.250 31.292 C 287.163 31.771,280.343 33.480,280.621 34.205 C 282.020 37.855,283.925 41.516,284.375 41.419 C 291.592 39.857,291.178 39.909,296.375 39.892 C 303.066 39.869,305.372 40.633,306.932 43.387 C 307.635 44.628,307.716 46.348,307.063 46.154 C 300.270 44.146,287.815 44.766,282.348 47.384 C 274.351 51.213,274.309 60.885,282.273 64.816 C 289.084 68.177,300.825 67.541,306.496 63.503 C 307.491 62.794,307.500 62.806,307.500 64.750 L 307.500 66.500 314.250 66.500 L 321.000 66.500 320.996 55.438 C 320.991 43.321,320.894 42.254,319.536 39.397 C 316.392 32.784,306.766 29.924,292.250 31.292 M257.500 48.875 L 257.500 66.500 264.375 66.500 L 271.250 66.500 271.250 48.875 L 271.250 31.250 264.375 31.250 L 257.500 31.250 257.500 48.875 M196.489 39.908 C 208.804 43.391,205.573 58.309,192.500 58.325 C 179.417 58.342,176.612 42.335,189.250 39.783 C 190.006 39.630,190.850 39.455,191.125 39.393 C 191.968 39.205,195.049 39.501,196.489 39.908 M106.625 39.878 C 112.184 41.050,115.707 44.895,115.440 49.500 C 114.734 61.712,90.906 61.105,90.880 48.875 C 90.866 42.287,98.193 38.100,106.625 39.878 M302.193 51.253 C 303.467 51.387,305.239 51.680,306.130 51.904 L 307.750 52.311 307.750 53.538 C 307.750 60.043,292.317 62.762,290.013 56.663 C 288.623 52.985,294.375 50.429,302.193 51.253 " stroke="none" fill="#000000" fill-rule="evenodd"></path></g></svg>