<?xml version="1.0" standalone="no"?>
<!DOCTYPE svg PUBLIC "-//W3C//DTD SVG 20010904//EN"
 "http://www.w3.org/TR/2001/REC-SVG-20010904/DTD/svg10.dtd">
<svg version="1.0" xmlns="http://www.w3.org/2000/svg"
 width="1600.000000pt" height="350.000000pt" viewBox="0 0 1600.000000 350.000000"
 preserveAspectRatio="xMidYMid meet">

<g transform="translate(0.000000,350.000000) scale(0.100000,-0.100000)"
fill="#000000" stroke="none">
<path d="M10624 2666 c-67 -31 -106 -82 -112 -146 -6 -65 2 -93 40 -135 49
-57 101 -79 183 -79 82 0 134 22 183 79 38 42 46 70 40 135 -10 99 -103 170
-223 170 -42 0 -75 -7 -111 -24z"/>
<path d="M7010 1760 l0 -910 240 0 239 0 3 86 3 86 50 -39 c130 -103 247 -144
428 -151 143 -5 241 7 348 43 301 103 472 336 472 645 0 196 -56 335 -187 466
-153 153 -338 224 -582 224 -195 0 -343 -49 -467 -154 l-67 -57 0 336 0 335
-240 0 -240 0 0 -910z m1041 106 c170 -60 261 -181 261 -346 0 -209 -153 -355
-385 -368 -252 -13 -437 142 -437 368 0 217 169 368 410 369 64 0 101 -5 151
-23z"/>
<path d="M1130 1725 l0 -875 240 0 240 0 2 554 3 554 535 -554 535 -554 208 0
207 0 0 875 0 875 -240 0 -240 0 -2 -537 -3 -537 -519 537 -519 537 -223 0
-224 0 0 -875z"/>
<path d="M5770 2360 l0 -170 -100 0 -100 0 0 -160 0 -160 100 0 100 0 0 -322
c1 -374 7 -437 49 -522 72 -144 230 -205 501 -193 124 6 236 29 301 63 l29 15
0 148 0 149 -62 -20 c-85 -27 -230 -30 -275 -5 -58 31 -58 34 -58 372 l0 310
198 3 197 2 0 160 0 160 -200 0 -200 0 0 170 0 170 -240 0 -240 0 0 -170z"/>
<path d="M4207 2195 c-283 -48 -534 -211 -636 -414 -47 -92 -65 -166 -65 -266
0 -163 60 -301 184 -425 186 -184 480 -284 790 -266 437 24 763 242 846 566
22 87 15 230 -17 319 -83 240 -343 429 -667 486 -106 18 -325 18 -435 0z m364
-330 c72 -21 128 -53 184 -106 87 -82 124 -187 106 -301 -31 -186 -200 -308
-431 -308 -193 0 -346 84 -418 230 -23 47 -27 67 -27 145 0 80 3 97 30 149 60
118 160 179 345 210 40 7 161 -4 211 -19z"/>
<path d="M9990 2199 c-60 -12 -175 -69 -227 -114 -23 -19 -60 -63 -82 -96
l-41 -61 0 131 0 131 -245 0 -245 0 0 -670 0 -670 245 0 245 0 0 298 c0 245 3
308 16 353 26 86 59 143 113 191 83 75 176 109 329 123 l82 7 0 194 0 194 -72
-1 c-40 -1 -93 -5 -118 -10z"/>
<path d="M14175 2204 c-140 -30 -241 -81 -337 -173 l-38 -35 0 97 0 97 -240 0
-240 0 0 -670 0 -670 240 0 240 0 0 393 c0 441 3 467 66 537 59 65 112 84 234
85 117 0 170 -17 223 -71 70 -70 77 -122 77 -576 l0 -368 241 0 241 0 -4 488
c-4 471 -5 489 -26 546 -32 87 -65 138 -123 190 -102 92 -244 137 -426 135
-59 -1 -117 -3 -128 -5z"/>
<path d="M11849 2185 c-143 -21 -359 -77 -359 -94 0 -7 109 -272 114 -278 1
-2 45 8 97 21 195 49 445 59 562 22 102 -32 163 -101 174 -194 l5 -49 -83 18
c-140 31 -328 43 -461 30 -282 -27 -454 -115 -525 -266 -25 -53 -28 -72 -28
-155 0 -81 4 -103 26 -150 49 -105 148 -180 304 -230 54 -17 103 -24 210 -27
214 -8 349 24 482 113 36 24 67 44 69 44 2 0 4 -31 4 -70 l0 -70 230 0 230 0
0 433 c0 402 -1 440 -20 513 -55 216 -214 341 -494 389 -108 18 -411 19 -537
0z m431 -755 c36 -6 89 -18 119 -26 l54 -15 -7 -60 c-3 -33 -12 -72 -20 -88
-24 -45 -89 -97 -152 -121 -82 -31 -247 -39 -327 -16 -128 37 -177 140 -113
239 22 33 107 76 173 87 70 11 198 11 273 0z"/>
<path d="M10500 1520 l0 -670 240 0 240 0 0 670 0 670 -240 0 -240 0 0 -670z"/>
</g>
</svg>
