<svg version="1.2" xmlns="http://www.w3.org/2000/svg" viewBox="0 0 1600 350" width="1600" height="350">
	<title>notbrian_title_svg-svg</title>
	<style>
		.s0 { fill: #000000 } 
	</style>
	<path id="NOTBRIAN" class="s0" aria-label="NOTBRIAN"  d="m310.5 254.4h-10.3q-13.5 0-19.5-3.2-5.6-3.1-10.6-9.5l-72.4-95.6v81.2q0 6.3 4.9 9 5.2 2.5 14 2.5 0 7.9-6 14.2h-53.8q-5.7-6.1-5.7-14.2 8.8 0 13.2-2.5 4.7-2.7 4.7-9v-105.7q0-6.3-5.2-8.8-4.9-2.7-13.7-2.7 0-8.5 5.7-14.2h35.9q7.5 0 15 5.2 7.8 5 14.3 14l58.7 80.7v-74.2q0-6.3-4.9-8.8-4.7-2.7-13.5-2.7 0-3.8 1.6-7.6 1.5-3.9 4.4-6.6h55.1q6 5.9 6 14.2-8.6 0-13.2 2.7-4.7 2.5-4.7 8.8zm106.6 1.6q-25.1 0-42.9-10.2-17.9-10.1-27.5-28.3-9.5-18.5-9.5-42.8 0-25.8 9.8-43.8 9.8-18.3 27.7-27.9 18.1-9.7 42.1-9.7 25.1 0 43 10.1 18.1 10.1 27.7 28.6 9.8 18.2 9.8 42.7 0 25.7-10.1 43.9-9.8 18-27.9 27.7-17.9 9.7-42.2 9.7zm0-16.5q6 0 11.7-2.7 5.6-2.7 10.3-9.6 4.7-7 7.2-19.8 2.9-13.1 2.9-33.6 0-25.4-4.1-39.1-4.2-14-11.4-19.4-7-5.4-16.1-5.4-5.9 0-11.6 2.7-5.7 2.7-10.4 9.7-4.6 7-7.5 19.8-2.6 12.8-2.6 33.3 0 25.4 4.2 39.4 4.1 13.9 11.4 19.3 7.2 5.4 16 5.4zm213 13.5h-88q-5.7-5.6-5.7-14.4 14 0 21.5-2.9 7.7-2.9 7.7-9.2v-112.7h-5.7q-6.7 0-13.4 3.6-6.5 3.6-11.4 13.2-4.7 9.5-6.5 27.7-3.1-0.2-7.7-0.4-4.7-0.3-9.1-0.7-4.1-0.7-6.5-1.4 0-4.7 0.6-13.2 0.5-8.6 1.5-18.3 1-9.6 2.6-18 1.8-8.5 4.1-13 4.7 0 10.6 0.7 6 0.6 10.7 2h100.9q4.9-1.4 10.6-2 5.7-0.7 10.6-0.7 2.3 4.5 3.9 13 1.8 8.4 2.8 18 1 9.7 1.6 18.3 0.5 8.5 0.5 13.2-3.4 1.2-10.9 1.8-7.2 0.7-12.4 0.7-1.6-18.2-5.2-27.7-3.6-9.6-9.6-13.2-5.9-3.6-15.2-3.6h-4.4v112.7q0 12.1 27.4 12.1 0 8.8-5.9 14.4zm118.7 1.8q-12.1 0-28.2-0.9-16-0.9-39.8-0.9-5.7-6-5.7-14.1 8.8 0 12.4-2.5 3.6-2.7 3.6-9v-105.8q0-6.3-3.6-8.7-3.6-2.7-12.4-2.7 0-8.1 5.7-14.2 18.3 0 29.2-0.2 10.9-0.5 18.4-0.7 7.7-0.2 15.5-0.2 22.5 0 37 3.6 14.5 3.3 22.5 9 8.3 5.4 11.4 12.1 3.4 6.5 3.4 13.1 0 12.6-7.5 21.6-7.5 9-25.4 15.5 22.3 4 32.4 12.6 10.3 8.5 10.3 26.5 0 8.8-3.4 17.1-3.3 8.1-12.1 14.7-8.6 6.5-24.1 10.3-15.5 3.8-39.6 3.8zm-7.2-90.4q18.9 0 26.6-7.2 8.1-7.2 8.1-19.4 0-12.1-7.8-19.3-7.5-7.2-24.1-7.2-2.6 0-5.7 0.2-2.8 0.2-4.9 0.7v51.7q1.8 0.3 3.9 0.5 2.1 0 3.9 0zm3.1 74q36.2 0 36.2-27.2 0-15.3-9-23-8.8-7.6-29.5-7.6-2.1 0-4.7 0.2-2.3 0-3.9 0v56.9q1.8 0.3 4.7 0.5 2.8 0.2 6.2 0.2zm235.4 16.2q-16.5 0-25.3-4.7-8.8-5-12.9-13.1-4.2-8.1-7.3-17.7-1.8-6.6-4.6-13.5-2.6-7-6.3-12.4-3.6-5.4-8.8-7h-17v41.2q0 6.3 5.1 9 5.2 2.5 12.7 2.5 0 8.1-5.7 14.1h-64.9q-6-6.3-6-14.1 8.8 0 12.7-2.5 4.1-2.7 4.1-9v-105.8q0-6.3-4.1-8.7-4.1-2.7-12.9-2.7 0-3.9 1.3-7.7 1.3-3.8 3.8-6.5 11.2 0 20.7-0.2 9.6-0.5 17.6-0.7 7-0.5 14-0.7 7.3-0.2 15.3-0.2 26.9 0 43.2 5.4 16.3 5.4 23.5 15.1 7.3 9.6 7.3 22.9 0 16.2-9.9 26.3-9.8 10.2-30.5 14 11.4 2.7 22 13.9 10.9 11.1 16.3 26.6 2.9 8.3 7.3 12.6 4.6 4.3 11.9 5.2v11.2q-3.4 4.3-9.6 5.9-6.2 1.3-13 1.3zm-70.8-83.9q15.7 0 24.3-8.6 8.8-8.5 8.8-22.2 0-14-7.5-21.2-7.5-7.4-24.4-7.4-2.5 0-6.7 0.2-3.9 0.2-5.9 0.7v58q1.8 0.3 5.7 0.5 3.8 0 5.7 0zm167.9 82.3h-62.9q-5.7-5.6-5.7-14.4 8.5 0 11.9-2.4 3.6-2.5 3.6-8.8v-105.8q0-6.3-3.6-8.7-3.4-2.7-11.9-2.7 0-8.6 5.7-14.2h62.9q2.6 2.7 4.1 6.5 1.6 3.8 1.6 7.7-8.6 0-12.2 2.7-3.4 2.4-3.4 8.7v105.8q0 6.3 3.4 8.8 3.6 2.4 12.2 2.4 0 4.1-1.6 7.9-1.5 3.8-4.1 6.5zm71.7 0h-57.7q-6-5.6-6-14.4 7 0 12.9-3.6 6.2-3.6 9.1-11l42.4-108.9q-10.3-2.9-26.1-2.9 0-9.7 6.2-16.2h70.9l48.1 127.3q2.9 7.5 9.1 11.5 6.2 3.8 12.9 3.8 0 8.8-5.9 14.4h-70.1q-6-5.6-6-14.4 6.7 0 10.6-2.4 4.1-2.7 4.1-8.4 0-2-0.5-4.7-0.2-2.7-1.3-5.8l-1.5-4.8h-58l-1.5 4.8q-1.1 2.9-1.8 5.4-0.6 2.4-0.6 4.5 0 6 4.4 8.7 4.4 2.7 12.2 2.7 0 8.8-5.9 14.4zm21.2-125.3l-22.3 67.3h46.6l-18.4-55.8q-2.3-6.8-5.9-11.5zm262.1 126.7h-10.4q-13.4 0-19.4-3.1-5.7-3.2-10.6-9.5l-72.4-95.6v81.2q0 6.3 4.9 9 5.2 2.5 14 2.5 0 7.8-6 14.2l-53.8-0.1q-5.7-6-5.7-14.1 8.8 0 13.2-2.5 4.6-2.7 4.6-9v-105.8q0-6.3-5.1-8.7-4.9-2.7-13.7-2.7 0-8.6 5.7-14.2h35.9q7.5 0 15 5.2 7.8 4.9 14.3 13.9l58.7 80.8v-74.3q0-6.3-4.9-8.7-4.7-2.7-13.5-2.7 0-3.9 1.6-7.7 1.5-3.8 4.4-6.5h55.1q5.9 5.8 5.9 14.2-8.5 0-13.2 2.7-4.6 2.4-4.6 8.7z"/>
</svg>